<svg width="18" height="12" viewBox="0 0 18 12" fill="none" xmlns="http://www.w3.org/2000/svg">
<path d="M1.41417 7.69337C2.18817 4.23159 5.42378 1.77188 9.06341 1.77188C12.7019 1.77188 15.9375 4.23159 16.7127 7.69337C16.7434 7.83074 16.8314 7.95112 16.9574 8.02803C17.0834 8.10495 17.237 8.13209 17.3845 8.1035C17.532 8.0749 17.6613 7.99291 17.7438 7.87556C17.8264 7.7582 17.8556 7.6151 17.8249 7.47773C16.943 3.54029 13.2546 0.714844 9.06341 0.714844C4.87222 0.714844 1.18378 3.54029 0.301962 7.47773C0.271261 7.6151 0.300406 7.7582 0.382986 7.87556C0.465566 7.99291 0.594817 8.0749 0.742304 8.1035C0.889792 8.13209 1.04343 8.10495 1.16943 8.02803C1.29543 7.95112 1.38347 7.83074 1.41417 7.69337ZM9.05206 3.88594C10.1055 3.88594 11.1159 4.27572 11.8608 4.96953C12.6057 5.66334 13.0242 6.60435 13.0242 7.58555C13.0242 8.56675 12.6057 9.50776 11.8608 10.2016C11.1159 10.8954 10.1055 11.2852 9.05206 11.2852C7.99858 11.2852 6.98825 10.8954 6.24332 10.2016C5.4984 9.50776 5.0799 8.56675 5.0799 7.58555C5.0799 6.60435 5.4984 5.66334 6.24332 4.96953C6.98825 4.27572 7.99858 3.88594 9.05206 3.88594Z" fill="#6A707C"/>
</svg>
