<svg width="28" height="28" viewBox="0 0 28 28" fill="none" xmlns="http://www.w3.org/2000/svg">
<g clip-path="url(#clip0_99_1668)">
<path d="M14.0002 9.33405C13.0772 9.33405 12.1749 9.60774 11.4075 10.1205C10.6401 10.6333 10.0419 11.3621 9.68873 12.2149C9.33552 13.0676 9.2431 14.0059 9.42317 14.9111C9.60323 15.8164 10.0477 16.6479 10.7003 17.3005C11.353 17.9532 12.1845 18.3976 13.0897 18.5777C13.995 18.7578 14.9333 18.6654 15.786 18.3122C16.6387 17.9589 17.3676 17.3608 17.8804 16.5934C18.3931 15.8259 18.6668 14.9237 18.6668 14.0007C18.6668 12.763 18.1752 11.5761 17.3 10.7009C16.4248 9.82571 15.2378 9.33405 14.0002 9.33405ZM14.0002 16.334C13.5387 16.334 13.0875 16.1972 12.7038 15.9408C12.3201 15.6844 12.0211 15.32 11.8444 14.8936C11.6678 14.4673 11.6216 13.9981 11.7117 13.5455C11.8017 13.0929 12.0239 12.6771 12.3502 12.3508C12.6766 12.0245 13.0923 11.8022 13.545 11.7122C13.9976 11.6222 14.4667 11.6684 14.8931 11.845C15.3195 12.0216 15.6839 12.3207 15.9403 12.7044C16.1967 13.0881 16.3335 13.5392 16.3335 14.0007C16.3335 14.6196 16.0877 15.213 15.6501 15.6506C15.2125 16.0882 14.619 16.334 14.0002 16.334Z" fill="#374957"/>
<path d="M24.8431 16.2167L24.3251 15.918C24.5583 14.6492 24.5583 13.3485 24.3251 12.0797L24.8431 11.781C25.2414 11.5512 25.5906 11.2452 25.8706 10.8804C26.1507 10.5156 26.3562 10.0993 26.4754 9.65512C26.5945 9.21095 26.6251 8.74765 26.5652 8.29168C26.5053 7.83572 26.3562 7.39601 26.1264 6.99767C25.8966 6.59932 25.5905 6.25015 25.2258 5.97007C24.861 5.69 24.4447 5.48451 24.0005 5.36534C23.5563 5.24617 23.093 5.21566 22.6371 5.27554C22.1811 5.33542 21.7414 5.48452 21.3431 5.71433L20.8239 6.01417C19.8433 5.1764 18.7165 4.52696 17.5 4.0985V3.5C17.5 2.57174 17.1313 1.6815 16.4749 1.02513C15.8185 0.368749 14.9283 0 14 0C13.0718 0 12.1816 0.368749 11.5252 1.02513C10.8688 1.6815 10.5 2.57174 10.5 3.5V4.0985C9.28367 4.52849 8.15721 5.17953 7.17738 6.01883L6.65588 5.71667C5.85139 5.25254 4.89548 5.127 3.99843 5.36767C3.10138 5.60834 2.33668 6.19551 1.87255 7C1.40842 7.80449 1.28288 8.7604 1.52356 9.65745C1.76423 10.5545 2.35139 11.3192 3.15588 11.7833L3.67388 12.082C3.44068 13.3508 3.44068 14.6515 3.67388 15.9203L3.15588 16.219C2.35139 16.6831 1.76423 17.4478 1.52356 18.3449C1.28288 19.2419 1.40842 20.1978 1.87255 21.0023C2.33668 21.8068 3.10138 22.394 3.99843 22.6347C4.89548 22.8753 5.85139 22.7498 6.65588 22.2857L7.17505 21.9858C8.15594 22.8237 9.28319 23.4732 10.5 23.9015V24.5C10.5 25.4283 10.8688 26.3185 11.5252 26.9749C12.1816 27.6313 13.0718 28 14 28C14.9283 28 15.8185 27.6313 16.4749 26.9749C17.1313 26.3185 17.5 25.4283 17.5 24.5V23.9015C18.7164 23.4715 19.8429 22.8205 20.8227 21.9812L21.3442 22.2822C22.1487 22.7463 23.1046 22.8718 24.0017 22.6312C24.8987 22.3905 25.6634 21.8033 26.1276 20.9988C26.5917 20.1943 26.7172 19.2384 26.4765 18.3414C26.2359 17.4443 25.6487 16.6796 24.8442 16.2155L24.8431 16.2167ZM21.8704 11.8113C22.2655 13.2429 22.2655 14.7548 21.8704 16.1863C21.8014 16.4355 21.8171 16.7005 21.9151 16.9398C22.0131 17.179 22.1878 17.379 22.4117 17.5082L23.6764 18.2385C23.9445 18.3932 24.1402 18.6481 24.2204 18.9471C24.3005 19.246 24.2587 19.5646 24.104 19.8328C23.9493 20.1009 23.6944 20.2965 23.3954 20.3767C23.0964 20.4569 22.7778 20.415 22.5097 20.2603L21.2427 19.5277C21.0186 19.3979 20.7576 19.3463 20.501 19.3812C20.2444 19.416 20.0066 19.5353 19.8252 19.7202C18.7868 20.7803 17.4786 21.5366 16.0417 21.9077C15.7909 21.9721 15.5687 22.1182 15.4101 22.3229C15.2514 22.5276 15.1654 22.7792 15.1655 23.0382V24.5C15.1655 24.8094 15.0426 25.1062 14.8238 25.325C14.605 25.5438 14.3083 25.6667 13.9989 25.6667C13.6895 25.6667 13.3927 25.5438 13.1739 25.325C12.9551 25.1062 12.8322 24.8094 12.8322 24.5V23.0393C12.8323 22.7804 12.7463 22.5287 12.5877 22.3241C12.4291 22.1194 12.2068 21.9733 11.956 21.9088C10.5191 21.5363 9.21127 20.7783 8.17372 19.7167C7.99233 19.5318 7.75458 19.4125 7.49793 19.3777C7.24129 19.3428 6.98034 19.3944 6.75622 19.5242L5.49155 20.2557C5.35882 20.3335 5.212 20.3843 5.05956 20.4051C4.90712 20.426 4.75206 20.4164 4.60331 20.3771C4.45456 20.3378 4.31506 20.2694 4.19284 20.176C4.07062 20.0825 3.96809 19.9658 3.89116 19.8326C3.81423 19.6993 3.76441 19.5522 3.74458 19.3996C3.72475 19.247 3.73529 19.092 3.7756 18.9435C3.81592 18.795 3.8852 18.656 3.97947 18.5344C4.07374 18.4128 4.19113 18.311 4.32488 18.235L5.58955 17.5047C5.81349 17.3755 5.98817 17.1755 6.08615 16.9363C6.18413 16.697 6.19987 16.432 6.13088 16.1828C5.7358 14.7513 5.7358 13.2394 6.13088 11.8078C6.19863 11.5592 6.18214 11.2951 6.084 11.0568C5.98586 10.8186 5.81158 10.6195 5.58838 10.4907L4.32372 9.76033C4.0556 9.60562 3.85993 9.35074 3.77975 9.05176C3.69956 8.75278 3.74142 8.43419 3.89613 8.16608C4.05084 7.89797 4.30572 7.7023 4.6047 7.62211C4.90368 7.54192 5.22227 7.58379 5.49038 7.7385L6.75738 8.47117C6.98089 8.60127 7.24129 8.65341 7.49767 8.61941C7.75404 8.58541 7.99184 8.46719 8.17372 8.28333C9.21215 7.22323 10.5204 6.46686 11.9572 6.09583C12.2088 6.03116 12.4316 5.88438 12.5903 5.67875C12.749 5.47313 12.8345 5.22042 12.8334 4.96067V3.5C12.8334 3.19058 12.9563 2.89383 13.1751 2.67504C13.3939 2.45625 13.6906 2.33333 14 2.33333C14.3095 2.33333 14.6062 2.45625 14.825 2.67504C15.0438 2.89383 15.1667 3.19058 15.1667 3.5V4.96067C15.1666 5.21962 15.2526 5.47125 15.4112 5.67593C15.5699 5.8806 15.7921 6.02669 16.0429 6.09117C17.4802 6.46351 18.7885 7.22153 19.8264 8.28333C20.0078 8.46821 20.2455 8.58747 20.5022 8.62233C20.7588 8.65718 21.0198 8.60564 21.2439 8.47583L22.5085 7.74433C22.6413 7.66652 22.7881 7.61573 22.9405 7.59489C23.093 7.57404 23.248 7.58356 23.3968 7.62288C23.5455 7.66221 23.685 7.73057 23.8073 7.82403C23.9295 7.91749 24.032 8.03421 24.1089 8.16745C24.1859 8.3007 24.2357 8.44784 24.2555 8.60042C24.2754 8.753 24.2648 8.90799 24.2245 9.05647C24.1842 9.20496 24.1149 9.344 24.0206 9.4656C23.9264 9.5872 23.809 9.68895 23.6752 9.765L22.4105 10.4953C22.1878 10.6245 22.014 10.8237 21.9163 11.062C21.8186 11.3002 21.8024 11.5641 21.8704 11.8125V11.8113Z" fill="#374957"/>
</g>
<defs>
<clipPath id="clip0_99_1668">
<rect width="28" height="28" fill="white"/>
</clipPath>
</defs>
</svg>
