<svg width="43" height="43" viewBox="0 0 43 43" fill="none" xmlns="http://www.w3.org/2000/svg">
<path fill-rule="evenodd" clip-rule="evenodd" d="M3 9.5C3 5.91014 5.91014 3 9.5 3H25.5C26.3284 3 27 2.32842 27 1.5C27 0.67158 26.3284 0 25.5 0H9.5C4.2533 0 0 4.2533 0 9.5V33.5C0 38.7468 4.2533 43 9.5 43H33.5C38.7468 43 43 38.7468 43 33.5V17.5C43 16.6716 42.3284 16 41.5 16C40.6716 16 40 16.6716 40 17.5V24.5182C39.9098 24.446 39.816 24.3774 39.7188 24.3126L34.957 21.138C31.784 19.0226 27.559 19.441 24.8624 22.1376L18.1376 28.8624C15.441 31.559 11.216 31.9774 8.04306 29.862L3 26.5V9.5ZM37 1.5C37 0.67158 36.3284 0 35.5 0C34.6716 0 34 0.67158 34 1.5V6H29.5C28.6716 6 28 6.67158 28 7.5C28 8.32842 28.6716 9 29.5 9H34V13.5C34 14.3284 34.6716 15 35.5 15C36.3284 15 37 14.3284 37 13.5V9H41.5C42.3284 9 43 8.32842 43 7.5C43 6.67158 42.3284 6 41.5 6H37V1.5ZM14.5 19.5C17.2614 19.5 19.5 17.2614 19.5 14.5C19.5 11.7386 17.2614 9.5 14.5 9.5C11.7386 9.5 9.5 11.7386 9.5 14.5C9.5 17.2614 11.7386 19.5 14.5 19.5Z" fill="#8391A1" fill-opacity="0.4"/>
</svg>
