<svg width="16" height="9" viewBox="0 0 16 9" fill="none" xmlns="http://www.w3.org/2000/svg">
<path d="M1.24247 0.534996C1.15516 0.622082 1.08589 0.725536 1.03863 0.839433C0.991368 0.953331 0.967041 1.07543 0.967041 1.19875C0.967041 1.32206 0.991368 1.44416 1.03863 1.55806C1.08589 1.67196 1.15516 1.77541 1.24247 1.8625L7.47497 8.095C7.54435 8.16453 7.62677 8.21969 7.7175 8.25732C7.80823 8.29496 7.90549 8.31433 8.00372 8.31433C8.10194 8.31433 8.1992 8.29496 8.28994 8.25732C8.38067 8.21969 8.46308 8.16453 8.53247 8.095L14.765 1.8625C15.1325 1.495 15.1325 0.902495 14.765 0.534995C14.3975 0.167495 13.805 0.167495 13.4375 0.534995L7.99997 5.965L2.56247 0.527497C2.20247 0.167498 1.60247 0.167496 1.24247 0.534996Z" fill="#1E232C" stroke="#1E232C" stroke-width="0.2"/>
</svg>
