<svg width="18" height="16" viewBox="0 0 18 16" fill="none" xmlns="http://www.w3.org/2000/svg">
<path fill-rule="evenodd" clip-rule="evenodd" d="M6.82758 8.64355C9.20808 8.64355 11.1379 6.70863 11.1379 4.32178C11.1379 1.93492 9.20808 0 6.82758 0C4.44709 0 2.51731 1.93492 2.51731 4.32178C2.51731 6.70863 4.44709 8.64355 6.82758 8.64355ZM6.82758 7.14032C8.38008 7.14032 9.63863 5.87842 9.63863 4.32178C9.63863 2.76513 8.38008 1.50323 6.82758 1.50323C5.27509 1.50323 4.01654 2.76513 4.01654 4.32178C4.01654 5.87842 5.27509 7.14032 6.82758 7.14032Z" fill="#86878B"/>
<path d="M0.24263 15.2674C0.0618364 15.2014 -0.0407869 15.0084 0.015379 14.8239C0.905815 11.8988 3.61887 9.77097 6.82757 9.77097C10.0363 9.77097 12.7494 11.8988 13.6398 14.8239C13.696 15.0084 13.5933 15.2014 13.4125 15.2674L12.713 15.5227C12.5007 15.6001 12.2696 15.4724 12.2034 15.2558C11.498 12.9504 9.35801 11.2742 6.82757 11.2742C4.29713 11.2742 2.15715 12.9504 1.45182 15.2558C1.38555 15.4724 1.15449 15.6001 0.942154 15.5227L0.24263 15.2674Z" fill="#86878B"/>
<path d="M14.0431 10.8818V8.93864H12.1034C11.932 8.93864 11.7931 8.79944 11.7931 8.62773V7.53955C11.7931 7.36784 11.932 7.22864 12.1034 7.22864H14.0431V5.28545C14.0431 5.11374 14.182 4.97455 14.3534 4.97455H15.4397C15.6111 4.97455 15.75 5.11374 15.75 5.28545V7.22864H17.6897C17.8611 7.22864 18 7.36784 18 7.53955V8.62773C18 8.79944 17.8611 8.93864 17.6897 8.93864H15.75V10.8818C15.75 11.0535 15.6111 11.1927 15.4397 11.1927H14.3534C14.182 11.1927 14.0431 11.0535 14.0431 10.8818Z" fill="#86878B"/>
</svg>
