<svg width="21" height="21" viewBox="0 0 21 21" fill="none" xmlns="http://www.w3.org/2000/svg">
<g clip-path="url(#clip0_99_1965)">
<path d="M20.9998 21H10.5155C8.46713 20.999 6.46376 20.3989 4.75217 19.2736C3.04057 18.1483 1.69551 16.5469 0.882647 14.6667C0.0697853 12.7865 -0.175371 10.7096 0.177374 8.69181C0.530119 6.67402 1.46536 4.80348 2.8679 3.31057C4.27044 1.81766 6.07902 0.7676 8.07089 0.289715C10.0627 -0.188169 12.1509 -0.0730017 14.0781 0.621032C16.0053 1.31506 17.6875 2.55765 18.9173 4.19574C20.1472 5.83383 20.8711 7.79588 20.9998 9.84022V9.89535V21ZM10.5155 1.74997C8.19487 1.74997 5.96928 2.67184 4.32833 4.31279C2.68739 5.95373 1.76552 8.17933 1.76552 10.5C1.76552 12.8206 2.68739 15.0462 4.32833 16.6872C5.96928 18.3281 8.19487 19.25 10.5155 19.25H19.2498V9.92334C19.0997 7.70812 18.1146 5.63237 16.4935 4.1153C14.8723 2.59822 12.7358 1.75287 10.5155 1.74997Z" fill="black"/>
<path d="M11.3752 6.12485H6.12524V7.87484H11.3752V6.12485Z" fill="black"/>
<path d="M14.8752 9.62512H6.12524V11.3751H14.8752V9.62512Z" fill="black"/>
<path d="M14.8752 13.125H6.12524V14.875H14.8752V13.125Z" fill="black"/>
</g>
<defs>
<clipPath id="clip0_99_1965">
<rect width="21" height="21" fill="white"/>
</clipPath>
</defs>
</svg>
