<svg width="17" height="17" viewBox="0 0 17 17" fill="none" xmlns="http://www.w3.org/2000/svg">
<g clip-path="url(#clip0_99_1835)">
<path d="M16.1705 6.49627L13.4229 3.74864C13.2893 3.61961 13.1103 3.54822 12.9246 3.54983C12.7389 3.55145 12.5612 3.62594 12.4299 3.75727C12.2986 3.8886 12.2241 4.06626 12.2225 4.25198C12.2208 4.43771 12.2922 4.61663 12.4213 4.75023L15.1689 7.49785C15.2505 7.5811 15.3219 7.67385 15.3814 7.7741C15.3708 7.7741 15.3623 7.76843 15.3516 7.76843L4.24215 7.7911C4.05429 7.7911 3.87412 7.86573 3.74128 7.99857C3.60844 8.1314 3.53381 8.31157 3.53381 8.49943C3.53381 8.6873 3.60844 8.86746 3.74128 9.0003C3.87412 9.13314 4.05429 9.20777 4.24215 9.20777L15.3474 9.1851C15.3672 9.1851 15.3835 9.17518 15.4026 9.17377C15.3398 9.29359 15.2601 9.40379 15.1661 9.50102L12.4184 12.2486C12.3508 12.314 12.2968 12.3921 12.2597 12.4786C12.2226 12.565 12.203 12.6579 12.2022 12.752C12.2014 12.846 12.2193 12.9393 12.2549 13.0264C12.2906 13.1134 12.3432 13.1925 12.4097 13.259C12.4762 13.3255 12.5553 13.3781 12.6423 13.4137C12.7294 13.4493 12.8226 13.4673 12.9167 13.4664C13.0107 13.4656 13.1037 13.4461 13.1901 13.409C13.2765 13.3718 13.3547 13.3179 13.42 13.2502L16.1676 10.5026C16.6988 9.97127 16.9972 9.25073 16.9972 8.49943C16.9972 7.74814 16.6988 7.0276 16.1676 6.49627H16.1705Z" fill="#86878B"/>
<path d="M4.95833 15.5833H3.54167C2.97808 15.5833 2.43758 15.3595 2.03906 14.9609C1.64055 14.5624 1.41667 14.0219 1.41667 13.4583V3.54167C1.41667 2.97808 1.64055 2.43758 2.03906 2.03906C2.43758 1.64055 2.97808 1.41667 3.54167 1.41667H4.95833C5.14619 1.41667 5.32636 1.34204 5.4592 1.2092C5.59204 1.07636 5.66667 0.896195 5.66667 0.708333C5.66667 0.520472 5.59204 0.340304 5.4592 0.207466C5.32636 0.0746278 5.14619 0 4.95833 0L3.54167 0C2.6027 0.00112473 1.70252 0.374625 1.03857 1.03857C0.374625 1.70252 0.00112473 2.6027 0 3.54167L0 13.4583C0.00112473 14.3973 0.374625 15.2975 1.03857 15.9614C1.70252 16.6254 2.6027 16.9989 3.54167 17H4.95833C5.14619 17 5.32636 16.9254 5.4592 16.7925C5.59204 16.6597 5.66667 16.4795 5.66667 16.2917C5.66667 16.1038 5.59204 15.9236 5.4592 15.7908C5.32636 15.658 5.14619 15.5833 4.95833 15.5833Z" fill="#86878B"/>
</g>
<defs>
<clipPath id="clip0_99_1835">
<rect width="17" height="17" fill="white"/>
</clipPath>
</defs>
</svg>
