<svg width="34" height="34" viewBox="0 0 34 34" fill="none" xmlns="http://www.w3.org/2000/svg">
<g clip-path="url(#clip0_99_1966)">
<path d="M13.3053 5.73644C13.0009 5.56732 12.6576 5.48062 12.3094 5.48492C11.9612 5.48922 11.6201 5.58436 11.3199 5.76094C11.0198 5.93752 10.7709 6.18941 10.598 6.49169C10.4251 6.79397 10.3341 7.13616 10.334 7.4844L10.3369 12.3069L5.67988 16.9639L10.3418 21.6258L10.3454 26.4801C10.3443 26.742 10.3949 27.0015 10.4944 27.2437C10.5939 27.4859 10.7403 27.7061 10.9252 27.8915C11.0471 28.013 11.184 28.1185 11.3325 28.2054C11.6308 28.3837 11.9708 28.4802 12.3182 28.4853C12.6657 28.4904 13.0083 28.4039 13.3117 28.2344L33.9493 16.9787L13.3053 5.73644ZM12.3387 7.48936L27.929 15.9803L9.50957 15.9654L12.338 13.137L12.3387 7.48936ZM12.35 26.4851L12.3422 20.7978L9.51381 17.9694L27.9375 17.9772L12.35 26.4851Z" fill="black"/>
</g>
<defs>
<clipPath id="clip0_99_1966">
<rect width="24" height="24" fill="white" transform="translate(17) rotate(45)"/>
</clipPath>
</defs>
</svg>
