<svg width="18" height="18" viewBox="0 0 18 18" fill="none" xmlns="http://www.w3.org/2000/svg">
<g clip-path="url(#clip0_99_1765)">
<path d="M14.0625 -0.05H3.9375C1.73526 -0.05 -0.05 1.73526 -0.05 3.9375V14.0625C-0.05 16.2647 1.73526 18.05 3.9375 18.05H14.0625C16.2647 18.05 18.05 16.2647 18.05 14.0625V3.9375C18.05 1.73526 16.2647 -0.05 14.0625 -0.05ZM16.825 14.0625C16.825 15.5882 15.5882 16.825 14.0625 16.825H3.9375C2.41181 16.825 1.175 15.5882 1.175 14.0625V3.9375C1.175 2.41181 2.41181 1.175 3.9375 1.175H14.0625C15.5882 1.175 16.825 2.41181 16.825 3.9375V14.0625Z" fill="#86878B" stroke="#86878B" stroke-width="0.1"/>
<path d="M5.625 3.8875H4.5C4.16171 3.8875 3.8875 4.16171 3.8875 4.5V5.625C3.8875 5.96329 4.16171 6.2375 4.5 6.2375H5.625C5.96329 6.2375 6.2375 5.96329 6.2375 5.625V4.5C6.2375 4.16171 5.96329 3.8875 5.625 3.8875Z" fill="#86878B" stroke="#86878B" stroke-width="0.1"/>
<path d="M5.625 7.825H4.5C4.16171 7.825 3.8875 8.09921 3.8875 8.4375V9.5625C3.8875 9.90079 4.16171 10.175 4.5 10.175H5.625C5.96329 10.175 6.2375 9.90079 6.2375 9.5625V8.4375C6.2375 8.09921 5.96329 7.825 5.625 7.825Z" fill="#86878B" stroke="#86878B" stroke-width="0.1"/>
<path d="M5.625 11.7625H4.5C4.16171 11.7625 3.8875 12.0367 3.8875 12.375V13.5C3.8875 13.8383 4.16171 14.1125 4.5 14.1125H5.625C5.96329 14.1125 6.2375 13.8383 6.2375 13.5V12.375C6.2375 12.0367 5.96329 11.7625 5.625 11.7625Z" fill="#86878B" stroke="#86878B" stroke-width="0.1"/>
<path d="M14.1125 4.5V4.45H14.0625H7.3125H7.2625V4.5V5.625V5.675H7.3125H14.0625H14.1125V5.625V4.5Z" fill="#86878B" stroke="#86878B" stroke-width="0.1"/>
<path d="M14.1125 8.4375V8.3875H14.0625H7.3125H7.2625V8.4375V9.5625V9.6125H7.3125H14.0625H14.1125V9.5625V8.4375Z" fill="#86878B" stroke="#86878B" stroke-width="0.1"/>
<path d="M14.1125 12.375V12.325H14.0625H7.3125H7.2625V12.375V13.5V13.55H7.3125H14.0625H14.1125V13.5V12.375Z" fill="#86878B" stroke="#86878B" stroke-width="0.1"/>
</g>
<defs>
<clipPath id="clip0_99_1765">
<rect width="18" height="18" fill="white"/>
</clipPath>
</defs>
</svg>
