<svg width="79" height="79" viewBox="0 0 79 79" fill="none" xmlns="http://www.w3.org/2000/svg">
<g clip-path="url(#clip0_128_204)">
<path d="M64.1875 9.875H11.5207C6.97593 9.875 3.29163 13.5593 3.29163 18.1041V57.6043C3.29163 62.1491 6.97593 65.8334 11.5207 65.8334H64.1875C68.7323 65.8334 72.4166 62.1491 72.4166 57.6043V18.1041C72.4166 13.5593 68.7323 9.875 64.1875 9.875Z" fill="url(#paint0_linear_128_204)"/>
<path d="M3.29163 55.9584V57.6041C3.29161 58.6848 3.50445 59.7549 3.918 60.7533C4.33155 61.7518 4.93772 62.659 5.70188 63.4231C6.46604 64.1873 7.37324 64.7934 8.37167 65.207C9.3701 65.6206 10.4402 65.8334 11.5209 65.8334H64.1875C65.2682 65.8334 66.3383 65.6205 67.3367 65.207C68.3351 64.7934 69.2423 64.1872 70.0064 63.4231C70.7706 62.6589 71.3767 61.7517 71.7903 60.7533C72.2038 59.7549 72.4166 58.6848 72.4166 57.6041V55.9584H3.29163Z" fill="#DCD1FF"/>
<path d="M48.6344 31.8544L31.8469 22.162C31.3715 21.8875 30.8322 21.743 30.2833 21.743C29.7344 21.7431 29.1951 21.8876 28.7198 22.162C28.2444 22.4365 27.8496 22.8312 27.5752 23.3066C27.3007 23.782 27.1562 24.3213 27.1562 24.8702V44.2548C27.1541 44.8045 27.2973 45.3451 27.5713 45.8217C27.8452 46.2983 28.2403 46.694 28.7163 46.9689C29.1924 47.2437 29.7327 47.388 30.2824 47.3869C30.8321 47.3858 31.3718 47.2396 31.8469 46.9629L48.6344 37.2705C49.1097 36.9961 49.5043 36.6013 49.7788 36.126C50.0532 35.6507 50.1976 35.1115 50.1976 34.5626C50.1976 34.0138 50.0532 33.4746 49.7788 32.9993C49.5043 32.5239 49.1097 32.1292 48.6344 31.8547V31.8544Z" fill="white"/>
<g filter="url(#filter0_d_128_204)">
<path d="M61.7188 69.125C69.445 69.125 75.7084 62.8617 75.7084 55.1354C75.7084 47.4091 69.445 41.1458 61.7188 41.1458C53.9925 41.1458 47.7291 47.4091 47.7291 55.1354C47.7291 62.8617 53.9925 69.125 61.7188 69.125Z" fill="white"/>
</g>
<path d="M66.9971 52.3258L62.8825 48.2112C62.5737 47.9026 62.1551 47.7293 61.7187 47.7293C61.2822 47.7293 60.8636 47.9026 60.5549 48.2112L56.4403 52.3258C56.2874 52.4786 56.1662 52.6601 56.0835 52.8598C56.0008 53.0595 55.9582 53.2735 55.9582 53.4896C55.9582 53.7058 56.0008 53.9198 56.0835 54.1195C56.1662 54.3192 56.2875 54.5006 56.4403 54.6534C56.5932 54.8063 56.7746 54.9275 56.9743 55.0102C57.174 55.0929 57.388 55.1355 57.6042 55.1355C57.8203 55.1355 58.0343 55.0929 58.234 55.0102C58.4337 54.9274 58.6151 54.8062 58.768 54.6534L60.0729 53.3485V60.8959C60.0771 61.3296 60.2523 61.7442 60.5605 62.0494C60.8687 62.3546 61.2849 62.5258 61.7187 62.5258C62.1524 62.5258 62.5686 62.3546 62.8768 62.0494C63.185 61.7442 63.3603 61.3296 63.3645 60.8959V53.3485L64.6695 54.6534C64.8219 54.8081 65.0035 54.9311 65.2036 55.0153C65.4038 55.0995 65.6187 55.1433 65.8358 55.1441C66.053 55.1449 66.2682 55.1027 66.469 55.02C66.6698 54.9372 66.8522 54.8156 67.0058 54.662C67.1593 54.5085 67.281 54.326 67.3637 54.1252C67.4465 53.9244 67.4886 53.7093 67.4878 53.4921C67.487 53.2749 67.4432 53.0601 67.359 52.8599C67.2748 52.6597 67.1518 52.4782 66.9971 52.3258Z" fill="#7C67C0"/>
</g>
<defs>
<filter id="filter0_d_128_204" x="43.7291" y="41.1458" width="35.9792" height="35.9792" filterUnits="userSpaceOnUse" color-interpolation-filters="sRGB">
<feFlood flood-opacity="0" result="BackgroundImageFix"/>
<feColorMatrix in="SourceAlpha" type="matrix" values="0 0 0 0 0 0 0 0 0 0 0 0 0 0 0 0 0 0 127 0" result="hardAlpha"/>
<feOffset dy="4"/>
<feGaussianBlur stdDeviation="2"/>
<feComposite in2="hardAlpha" operator="out"/>
<feColorMatrix type="matrix" values="0 0 0 0 0.800211 0 0 0 0 0.757812 0 0 0 0 0.9375 0 0 0 1 0"/>
<feBlend mode="normal" in2="BackgroundImageFix" result="effect1_dropShadow_128_204"/>
<feBlend mode="normal" in="SourceGraphic" in2="effect1_dropShadow_128_204" result="shape"/>
</filter>
<linearGradient id="paint0_linear_128_204" x1="14.6128" y1="58.5526" x2="50.7068" y2="9.50674" gradientUnits="userSpaceOnUse">
<stop offset="0.01" stop-color="#C0AFF9"/>
<stop offset="1" stop-color="#7C67C0"/>
</linearGradient>
<clipPath id="clip0_128_204">
<rect width="79" height="79" fill="white"/>
</clipPath>
</defs>
</svg>
